<svg xmlns="http://www.w3.org/2000/svg" class="editor-view__logo-preview" data-v-04588dbe="" data-v-0a059b40="" width="303.46002197265625" height="64.80000305175781" viewBox="0 0 303.46002197265625 64.80000305175781"><svg id="mark" viewBox="0 0 250 300" width="54" height="64.8" x="249.46002197265625" y="0" data-v-04588dbe="" style="fill: rgb(145, 220, 237);"><rect x="0" y="0" width="100%" height="100%" fill="none" data-v-04588dbe=""></rect><g data-v-04588dbe=""><path xmlns="http://www.w3.org/2000/svg" d="M122.5,255.5c-39,0-71-32-71-71c0-32.5,22-61,53.5-68.5V51h-6c-1,0-2-1-2-2V39c0-1,1-2,2-2h47c1,0,1.5,1,1.5,2v10.5  c0,1-1,2-1.5,2h-6v65c31.5,8,53.5,36,53.5,68.5C193.5,224,162,255.5,122.5,255.5z M101,47.5h6c1,0,2,1,2,2v68c0,1-0.5,1.5-1.5,1.5  c-30.5,7-52,34-52,65.5c0,37,30,67.5,67.5,67.5s67-30,67-67c0-31.5-21.5-58.5-52-65.5c-1,0-1.5-1-1.5-1.5V49.5c0-1,1-2,1.5-2h6v-7  h-43.5v7H101z"></path><path xmlns="http://www.w3.org/2000/svg" d="M178.5,177.5H156c1,1,1.5,2.5,1.5,4c0,3-2.5,6-6,6c-3,0-6-2.5-6-6c0-1.5,0.5-3,1.5-4h-35.5c0,1.5-1.5,3-3,3s-3-1.5-3-3H67  c-0.5,2.5-0.5,5-0.5,7.5c0,31,25,56,56,56s56-25,56-56C179,182.5,178.5,180,178.5,177.5z M75,193c-1.5,0-3-1.5-3-3s1.5-3,3-3  s3,1.5,3,3C77.5,192,76.5,193,75,193z M99,211c-2.5,0-4-2-4-4c0-2.5,2-4,4-4c2.5,0,4,2,4,4C103,209,101,211,99,211z M126,230.5  c-4,0-7-3-7-7c0-4,3-7,7-7c4,0,7,3,7,7C133,227,130,230.5,126,230.5z M155.5,203c-1.5,0-3-1.5-3-3s1.5-3,3-3s3,1.5,3,3  S157,203,155.5,203z"></path></g></svg><svg id="name" viewBox="0 0 233.458984375 42.49609375" width="233.458984375" height="42.49609375" x="0" y="11.150001525878906" data-v-04588dbe="" style="fill: rgb(145, 220, 237);"><rect x="0" y="0" width="100%" height="100%" fill="none" data-v-04588dbe=""></rect><g data-v-04588dbe=""><path xmlns="http://www.w3.org/2000/svg" d="M27.85 16.08L27.85 17.54Q27.85 22.37 26.14 26.01Q24.44 29.65 21.26 31.63Q18.08 33.60 13.97 33.60L13.97 33.60Q9.91 33.60 6.72 31.65Q3.53 29.69 1.77 26.07Q0.02 22.44 0 17.72L0 17.72L0 16.10Q0 11.28 1.74 7.60Q3.48 3.93 6.66 1.97Q9.84 0 13.93 0Q18.01 0 21.19 1.97Q24.37 3.93 26.11 7.60Q27.85 11.28 27.85 16.08L27.85 16.08ZM21.02 17.65L21.02 16.06Q21.02 10.92 19.18 8.24Q17.34 5.57 13.93 5.57L13.93 5.57Q10.53 5.57 8.69 8.21Q6.85 10.85 6.83 15.95L6.83 15.95L6.83 17.54Q6.83 22.55 8.67 25.31Q10.51 28.08 13.97 28.08L13.97 28.08Q17.36 28.08 19.18 25.41Q21.00 22.75 21.02 17.65L21.02 17.65ZM54.20 20.89L54.20 21.23Q54.20 26.84 51.65 30.22Q49.10 33.60 44.76 33.60L44.76 33.60Q41.08 33.60 38.81 31.04L38.81 31.04L38.81 42.50L32.32 42.50L32.32 8.85L38.34 8.85L38.57 11.23Q40.92 8.40 44.72 8.40L44.72 8.40Q49.21 8.40 51.71 11.72Q54.20 15.05 54.20 20.89L54.20 20.89ZM47.71 20.75L47.71 20.75Q47.71 17.36 46.51 15.52Q45.30 13.68 43.01 13.68L43.01 13.68Q39.96 13.68 38.81 16.01L38.81 16.01L38.81 25.96Q40.00 28.37 43.06 28.37L43.06 28.37Q47.71 28.37 47.71 20.75ZM69.40 33.60L69.40 33.60Q64.06 33.60 60.70 30.32Q57.34 27.04 57.34 21.58L57.34 21.58L57.34 20.96Q57.34 17.29 58.76 14.41Q60.17 11.52 62.77 9.96Q65.36 8.40 68.69 8.40L68.69 8.40Q73.67 8.40 76.54 11.54Q79.40 14.69 79.40 20.46L79.40 20.46L79.40 23.11L63.92 23.11Q64.24 25.49 65.82 26.93Q67.41 28.37 69.83 28.37L69.83 28.37Q73.58 28.37 75.69 25.65L75.69 25.65L78.88 29.22Q77.42 31.29 74.93 32.44Q72.44 33.60 69.40 33.60ZM68.66 13.66L68.66 13.66Q66.73 13.66 65.53 14.96Q64.33 16.26 63.99 18.69L63.99 18.69L73.02 18.69L73.02 18.17Q72.98 16.01 71.85 14.84Q70.73 13.66 68.66 13.66ZM82.95 8.85L89.06 8.85L89.26 11.66Q91.87 8.40 96.25 8.40L96.25 8.40Q100.11 8.40 102.00 10.67Q103.88 12.94 103.93 17.45L103.93 17.45L103.93 33.15L97.44 33.15L97.44 17.61Q97.44 15.54 96.54 14.61Q95.64 13.68 93.55 13.68L93.55 13.68Q90.81 13.68 89.44 16.01L89.44 16.01L89.44 33.15L82.95 33.15L82.95 8.85ZM130.00 33.15L127.74 26.41L115.92 26.41L113.67 33.15L106.51 33.15L118.68 0.45L124.93 0.45L137.17 33.15L130.00 33.15ZM121.81 8.71L117.74 20.96L125.92 20.96L121.81 8.71ZM146.96 0.45L146.96 27.74L161.27 27.74L161.27 33.15L140.22 33.15L140.22 0.45L146.96 0.45ZM182.63 22.26L189.37 22.26Q188.99 27.54 185.47 30.57Q181.96 33.60 176.21 33.60L176.21 33.60Q169.92 33.60 166.31 29.37Q162.71 25.13 162.71 17.74L162.71 17.74L162.71 15.75Q162.71 11.03 164.37 7.43Q166.03 3.84 169.12 1.92Q172.21 0 176.30 0L176.30 0Q181.96 0 185.42 3.03Q188.87 6.06 189.41 11.54L189.41 11.54L182.67 11.54Q182.43 8.38 180.91 6.95Q179.40 5.53 176.30 5.53L176.30 5.53Q172.93 5.53 171.25 7.94Q169.58 10.35 169.54 15.43L169.54 15.43L169.54 17.90Q169.54 23.20 171.14 25.65Q172.75 28.10 176.21 28.10L176.21 28.10Q179.33 28.10 180.87 26.67Q182.41 25.25 182.63 22.26L182.63 22.26ZM220.41 0.45L220.41 33.15L213.67 33.15L213.67 19.14L200.53 19.14L200.53 33.15L193.79 33.15L193.79 0.45L200.53 0.45L200.53 13.70L213.67 13.70L213.67 0.45L220.41 0.45ZM233.46 0.45L233.46 33.15L226.72 33.15L226.72 0.45L233.46 0.45Z"></path></g></svg><!----></svg>